<mxfile host="Electron" agent="Mozilla/5.0 (Windows NT 10.0; Win64; x64) AppleWebKit/537.36 (KHTML, like Gecko) draw.io/22.1.2 Chrome/114.0.5735.289 Electron/25.9.4 Safari/537.36" modified="2024-10-16T09:37:10.092Z" etag="rwKeEsbmQtr8CmEFfROX" version="22.1.2" type="device">
  <diagram id="C5RBs43oDa-KdzZeNtuy" name="Блок схема">
    <mxGraphModel dx="1547" dy="4395" grid="0" gridSize="10" guides="1" tooltips="1" connect="1" arrows="1" fold="1" page="0" pageScale="1" pageWidth="827" pageHeight="1169" math="0" shadow="0">
      <root>
        <mxCell id="WIyWlLk6GJQsqaUBKTNV-0" />
        <mxCell id="WIyWlLk6GJQsqaUBKTNV-1" parent="WIyWlLk6GJQsqaUBKTNV-0" />
        <mxCell id="18xvIHgk18ARuBdO5xVt-2" style="edgeStyle=orthogonalEdgeStyle;rounded=0;orthogonalLoop=1;jettySize=auto;html=1;exitX=0.5;exitY=1;exitDx=0;exitDy=0;entryX=0.5;entryY=0;entryDx=0;entryDy=0;" edge="1" parent="WIyWlLk6GJQsqaUBKTNV-1" source="18xvIHgk18ARuBdO5xVt-0" target="18xvIHgk18ARuBdO5xVt-1">
          <mxGeometry relative="1" as="geometry" />
        </mxCell>
        <mxCell id="18xvIHgk18ARuBdO5xVt-0" value="Начало" style="ellipse;whiteSpace=wrap;html=1;" vertex="1" parent="WIyWlLk6GJQsqaUBKTNV-1">
          <mxGeometry x="-289" y="-3426" width="98" height="51" as="geometry" />
        </mxCell>
        <mxCell id="18xvIHgk18ARuBdO5xVt-4" style="edgeStyle=orthogonalEdgeStyle;rounded=0;orthogonalLoop=1;jettySize=auto;html=1;exitX=0.5;exitY=1;exitDx=0;exitDy=0;entryX=0.5;entryY=0;entryDx=0;entryDy=0;" edge="1" parent="WIyWlLk6GJQsqaUBKTNV-1" source="18xvIHgk18ARuBdO5xVt-1" target="18xvIHgk18ARuBdO5xVt-3">
          <mxGeometry relative="1" as="geometry" />
        </mxCell>
        <mxCell id="18xvIHgk18ARuBdO5xVt-1" value="Запрос ввода: количество&lt;br&gt;столбцов (n)" style="shape=parallelogram;perimeter=parallelogramPerimeter;whiteSpace=wrap;html=1;fixedSize=1;" vertex="1" parent="WIyWlLk6GJQsqaUBKTNV-1">
          <mxGeometry x="-339.75" y="-3357" width="199.5" height="78" as="geometry" />
        </mxCell>
        <mxCell id="18xvIHgk18ARuBdO5xVt-6" style="edgeStyle=orthogonalEdgeStyle;rounded=0;orthogonalLoop=1;jettySize=auto;html=1;exitX=0.5;exitY=1;exitDx=0;exitDy=0;entryX=0.5;entryY=0;entryDx=0;entryDy=0;" edge="1" parent="WIyWlLk6GJQsqaUBKTNV-1" source="18xvIHgk18ARuBdO5xVt-3" target="18xvIHgk18ARuBdO5xVt-5">
          <mxGeometry relative="1" as="geometry" />
        </mxCell>
        <mxCell id="18xvIHgk18ARuBdO5xVt-3" value="Запрос ввода: количество&lt;br&gt;строк (m)" style="shape=parallelogram;perimeter=parallelogramPerimeter;whiteSpace=wrap;html=1;fixedSize=1;" vertex="1" parent="WIyWlLk6GJQsqaUBKTNV-1">
          <mxGeometry x="-339.75" y="-3261" width="199.5" height="78" as="geometry" />
        </mxCell>
        <mxCell id="18xvIHgk18ARuBdO5xVt-8" style="edgeStyle=orthogonalEdgeStyle;rounded=0;orthogonalLoop=1;jettySize=auto;html=1;exitX=0.5;exitY=1;exitDx=0;exitDy=0;entryX=0.5;entryY=0;entryDx=0;entryDy=0;" edge="1" parent="WIyWlLk6GJQsqaUBKTNV-1" source="18xvIHgk18ARuBdO5xVt-5" target="18xvIHgk18ARuBdO5xVt-7">
          <mxGeometry relative="1" as="geometry" />
        </mxCell>
        <mxCell id="18xvIHgk18ARuBdO5xVt-5" value="Запрос ввода: минимальное&lt;br&gt;значение&amp;nbsp;(minValue)" style="shape=parallelogram;perimeter=parallelogramPerimeter;whiteSpace=wrap;html=1;fixedSize=1;" vertex="1" parent="WIyWlLk6GJQsqaUBKTNV-1">
          <mxGeometry x="-339.75" y="-3163" width="199.5" height="78" as="geometry" />
        </mxCell>
        <mxCell id="18xvIHgk18ARuBdO5xVt-10" value="" style="edgeStyle=orthogonalEdgeStyle;rounded=0;orthogonalLoop=1;jettySize=auto;html=1;" edge="1" parent="WIyWlLk6GJQsqaUBKTNV-1" source="18xvIHgk18ARuBdO5xVt-7" target="18xvIHgk18ARuBdO5xVt-9">
          <mxGeometry relative="1" as="geometry" />
        </mxCell>
        <mxCell id="18xvIHgk18ARuBdO5xVt-7" value="Запрос ввода: максимальное&lt;br&gt;значение&amp;nbsp;(maxValue)" style="shape=parallelogram;perimeter=parallelogramPerimeter;whiteSpace=wrap;html=1;fixedSize=1;" vertex="1" parent="WIyWlLk6GJQsqaUBKTNV-1">
          <mxGeometry x="-339.75" y="-3065" width="199.5" height="78" as="geometry" />
        </mxCell>
        <mxCell id="18xvIHgk18ARuBdO5xVt-11" style="edgeStyle=orthogonalEdgeStyle;rounded=0;orthogonalLoop=1;jettySize=auto;html=1;exitX=0;exitY=0.5;exitDx=0;exitDy=0;entryX=0;entryY=0.5;entryDx=0;entryDy=0;" edge="1" parent="WIyWlLk6GJQsqaUBKTNV-1" source="18xvIHgk18ARuBdO5xVt-9" target="18xvIHgk18ARuBdO5xVt-7">
          <mxGeometry relative="1" as="geometry">
            <Array as="points">
              <mxPoint x="-413" y="-2930" />
              <mxPoint x="-413" y="-3026" />
            </Array>
          </mxGeometry>
        </mxCell>
        <mxCell id="18xvIHgk18ARuBdO5xVt-15" value="" style="edgeStyle=orthogonalEdgeStyle;rounded=0;orthogonalLoop=1;jettySize=auto;html=1;" edge="1" parent="WIyWlLk6GJQsqaUBKTNV-1" source="18xvIHgk18ARuBdO5xVt-9" target="18xvIHgk18ARuBdO5xVt-14">
          <mxGeometry relative="1" as="geometry" />
        </mxCell>
        <mxCell id="18xvIHgk18ARuBdO5xVt-9" value="Проверка minValue &amp;lt; maxValue" style="rhombus;whiteSpace=wrap;html=1;" vertex="1" parent="WIyWlLk6GJQsqaUBKTNV-1">
          <mxGeometry x="-357.25" y="-2965" width="234.5" height="70" as="geometry" />
        </mxCell>
        <mxCell id="18xvIHgk18ARuBdO5xVt-12" value="Нет" style="text;html=1;strokeColor=none;fillColor=none;align=center;verticalAlign=middle;whiteSpace=wrap;rounded=0;" vertex="1" parent="WIyWlLk6GJQsqaUBKTNV-1">
          <mxGeometry x="-428" y="-2993" width="60" height="30" as="geometry" />
        </mxCell>
        <mxCell id="18xvIHgk18ARuBdO5xVt-18" value="" style="edgeStyle=orthogonalEdgeStyle;rounded=0;orthogonalLoop=1;jettySize=auto;html=1;" edge="1" parent="WIyWlLk6GJQsqaUBKTNV-1" source="18xvIHgk18ARuBdO5xVt-14" target="18xvIHgk18ARuBdO5xVt-17">
          <mxGeometry relative="1" as="geometry" />
        </mxCell>
        <mxCell id="18xvIHgk18ARuBdO5xVt-14" value="Вызов метода GenerateRandomMatrix(n, m, minValue, maxValue)" style="rounded=0;whiteSpace=wrap;html=1;" vertex="1" parent="WIyWlLk6GJQsqaUBKTNV-1">
          <mxGeometry x="-355" y="-2873" width="230" height="60" as="geometry" />
        </mxCell>
        <mxCell id="18xvIHgk18ARuBdO5xVt-16" value="Да" style="text;html=1;strokeColor=none;fillColor=none;align=center;verticalAlign=middle;whiteSpace=wrap;rounded=0;" vertex="1" parent="WIyWlLk6GJQsqaUBKTNV-1">
          <mxGeometry x="-253" y="-2903" width="60" height="30" as="geometry" />
        </mxCell>
        <mxCell id="18xvIHgk18ARuBdO5xVt-20" value="" style="edgeStyle=orthogonalEdgeStyle;rounded=0;orthogonalLoop=1;jettySize=auto;html=1;" edge="1" parent="WIyWlLk6GJQsqaUBKTNV-1" source="18xvIHgk18ARuBdO5xVt-17" target="18xvIHgk18ARuBdO5xVt-19">
          <mxGeometry relative="1" as="geometry" />
        </mxCell>
        <mxCell id="18xvIHgk18ARuBdO5xVt-17" value="Получение сгенерированной матрицы" style="rounded=0;whiteSpace=wrap;html=1;" vertex="1" parent="WIyWlLk6GJQsqaUBKTNV-1">
          <mxGeometry x="-300" y="-2793" width="120" height="60" as="geometry" />
        </mxCell>
        <mxCell id="18xvIHgk18ARuBdO5xVt-22" value="" style="edgeStyle=orthogonalEdgeStyle;rounded=0;orthogonalLoop=1;jettySize=auto;html=1;" edge="1" parent="WIyWlLk6GJQsqaUBKTNV-1" source="18xvIHgk18ARuBdO5xVt-19" target="18xvIHgk18ARuBdO5xVt-21">
          <mxGeometry relative="1" as="geometry" />
        </mxCell>
        <mxCell id="18xvIHgk18ARuBdO5xVt-19" value="Вызов метода PrintMatrixByColumns(matrix)" style="rounded=0;whiteSpace=wrap;html=1;" vertex="1" parent="WIyWlLk6GJQsqaUBKTNV-1">
          <mxGeometry x="-337.5" y="-2713" width="195" height="60" as="geometry" />
        </mxCell>
        <mxCell id="18xvIHgk18ARuBdO5xVt-24" value="" style="edgeStyle=orthogonalEdgeStyle;rounded=0;orthogonalLoop=1;jettySize=auto;html=1;" edge="1" parent="WIyWlLk6GJQsqaUBKTNV-1" source="18xvIHgk18ARuBdO5xVt-21" target="18xvIHgk18ARuBdO5xVt-23">
          <mxGeometry relative="1" as="geometry" />
        </mxCell>
        <mxCell id="18xvIHgk18ARuBdO5xVt-21" value="Вывод матрицы по столбцам" style="rounded=0;whiteSpace=wrap;html=1;" vertex="1" parent="WIyWlLk6GJQsqaUBKTNV-1">
          <mxGeometry x="-300" y="-2633" width="120" height="60" as="geometry" />
        </mxCell>
        <mxCell id="18xvIHgk18ARuBdO5xVt-23" value="Конец" style="ellipse;whiteSpace=wrap;html=1;" vertex="1" parent="WIyWlLk6GJQsqaUBKTNV-1">
          <mxGeometry x="-300" y="-2553" width="120" height="44" as="geometry" />
        </mxCell>
      </root>
    </mxGraphModel>
  </diagram>
</mxfile>
